<?xml version="1.0" standalone="no"?>
<!DOCTYPE svg PUBLIC "-//W3C//DTD SVG 20010904//EN"
 "http://www.w3.org/TR/2001/REC-SVG-20010904/DTD/svg10.dtd">
<svg version="1.0" xmlns="http://www.w3.org/2000/svg"
 width="188.000000pt" height="69.000000pt" viewBox="0 0 188.000000 69.000000"
 preserveAspectRatio="xMidYMid meet">

<g transform="translate(0.000000,69.000000) scale(0.100000,-0.100000)"
fill="#000000" stroke="none">
<path d="M500 538 l0 -78 -50 0 -50 0 0 -35 0 -35 50 0 50 0 0 -113 c0 -97 3
-119 23 -157 30 -60 88 -86 171 -76 60 8 65 16 50 73 -5 18 -10 20 -31 12 -41
-15 -73 -10 -98 16 -24 23 -25 31 -25 135 l0 110 75 0 75 0 0 35 0 35 -75 0
-75 0 0 74 0 74 -45 4 -45 3 0 -77z"/>
<path d="M100 450 c-75 -39 -86 -143 -22 -189 15 -11 66 -27 112 -35 92 -18
110 -28 110 -61 0 -30 -17 -43 -65 -50 -57 -8 -97 6 -120 43 -17 26 -27 31
-57 32 -30 0 -38 -4 -38 -19 0 -28 41 -83 80 -105 49 -29 170 -30 220 -1 88
52 88 173 0 207 -14 5 -50 14 -80 19 -107 19 -142 49 -104 90 34 38 164 17
164 -27 0 -10 12 -14 40 -14 35 0 40 3 40 24 0 32 -36 75 -76 92 -49 20 -161
17 -204 -6z"/>
<path d="M790 343 c1 -137 12 -195 45 -239 50 -66 164 -81 241 -33 l34 21 0
-22 c0 -19 5 -21 43 -18 l42 3 3 203 2 202 -45 0 -45 0 0 -139 0 -140 -35 -27
c-21 -16 -53 -28 -79 -31 -38 -5 -47 -1 -77 25 l-34 30 -3 141 -4 141 -44 0
-44 0 0 -117z"/>
</g>
</svg>
